<svg xmlns="http://www.w3.org/2000/svg" viewBox="0 0 64 64" width="512" height="512"><path d="M57 10a41.807 41.807 0 01-23.262-7.043l-1.183-.789a1 1 0 00-1.11 0l-1.183.789A41.807 41.807 0 017 10a1 1 0 00-1 1v17.244a33.032 33.032 0 0016.876 28.792l8.636 4.836a.994.994 0 00.976 0l8.636-4.836A33.032 33.032 0 0058 28.244V11a1 1 0 00-1-1zm-1 18.244a31.032 31.032 0 01-15.853 27.048L32 59.854l-8.147-4.562A31.032 31.032 0 018 28.244V11.988a43.77 43.77 0 0023.371-7.367L32 4.2l.629.419A43.77 43.77 0 0056 11.988z"/><path d="M31.467 6.942a46.035 46.035 0 01-20.552 6.893 1 1 0 00-.915 1v13.409a29.028 29.028 0 0014.83 25.3l6.682 3.742a.994.994 0 00.976 0l6.682-3.742A29.028 29.028 0 0054 28.244V14.831a1 1 0 00-.915-1 46.027 46.027 0 01-20.552-6.889 1 1 0 00-1.066 0zM52 28.244A27.03 27.03 0 0138.193 51.8L32 55.27l-6.193-3.47A27.03 27.03 0 0112 28.244v-12.5a48.075 48.075 0 0020-6.779 48.066 48.066 0 0020 6.776z"/><path d="M31 12h2v2h-2zm0 38h2v2h-2zM14 17h2v2h-2zm34 0h2v2h-2zM14 29h2v2h-2zm34 0h2v2h-2zM18 41h2v2h-2zm26 0h2v2h-2z"/></svg>