<svg height="511pt" viewBox="0 0 511 511.999" width="511pt" xmlns="http://www.w3.org/2000/svg"><path d="M512.496 172v80c0 11.047-8.953 20-20 20h-13.152l-8.426 74.988c-1.148 10.219-9.805 17.766-19.852 17.77-.746 0-1.496-.043-2.257-.13-10.977-1.23-18.875-11.132-17.641-22.105l10.422-92.753c1.137-10.118 9.691-17.77 19.875-17.77H472.5v-40h-432v40h341c11.047 0 20 8.957 20 20 0 11.047-8.953 20-20 20H74.273l19.75 164.762C96.43 456.852 113.503 472 133.738 472h247.125c20.383 0 37.473-15.277 39.75-35.535 1.23-10.977 11.13-18.871 22.106-17.64 10.976 1.234 18.875 11.132 17.644 22.109-4.554 40.511-38.73 71.066-79.5 71.066H133.738c-40.468 0-74.617-30.3-79.433-70.48L33.988 272H20.5c-11.047 0-20-8.953-20-20v-80c0-11.047 8.953-20 20-20h70.938L197.12 8.16c6.54-8.898 19.055-10.816 27.957-4.273 8.902 6.539 10.817 19.054 4.277 27.957L141.075 152h231.59L284.378 31.844c-6.54-8.903-4.625-21.418 4.277-27.957 8.903-6.543 21.418-4.63 27.961 4.273L422.297 152h70.2c11.046 0 20 8.957 20 20zM236.5 332v80c0 11.047 8.953 20 20 20 11.043 0 20-8.953 20-20v-80c0-11.047-8.957-20-20-20-11.047 0-20 8.953-20 20zm80 0v80c0 11.047 8.953 20 20 20 11.043 0 20-8.953 20-20v-80c0-11.047-8.957-20-20-20-11.047 0-20 8.953-20 20zm-160 0v80c0 11.047 8.953 20 20 20 11.043 0 20-8.953 20-20v-80c0-11.047-8.957-20-20-20-11.047 0-20 8.953-20 20zm0 0"/></svg>