<svg xmlns="http://www.w3.org/2000/svg" viewBox="0 0 480 480"><path d="M240 0C107.452 0 0 107.452 0 240s107.452 240 240 240 240-107.452 240-240C479.85 107.514 372.486.15 240 0zm0 464C116.288 464 16 363.712 16 240S116.288 16 240 16s224 100.288 224 224c-.141 123.653-100.347 223.859-224 224z"/><path d="M240 40C129.543 40 40 129.543 40 240s89.543 200 200 200 200-89.543 200-200c-.123-110.406-89.594-199.877-200-200zm0 384c-101.62 0-184-82.38-184-184S138.38 56 240 56s184 82.38 184 184c-.115 101.573-82.427 183.885-184 184z"/><path d="M232 80h16v16h-16zm0 304h16v16h-16zm-78.939-278.558l13.847-7.997 7.998 13.847-13.847 7.998zm151.964 263.222l13.847-7.998 7.998 13.848-13.847 7.997zM97.429 166.928l8-13.856 13.856 8-8 13.856zm263.244 152.027l8-13.856 13.856 8-8 13.856zM80 232h16v16H80zm304 0h16v16h-16zM97.433 313.083l13.858-7.999 7.998 13.858-13.857 7.998zm263.238-152.011l13.856-8 8 13.856-13.856 8zM153.02 374.543l7.998-13.847 13.848 7.998-7.998 13.847zm152.042-263.236l7.997-13.847 13.848 7.997-7.998 13.848zM232 112v123.472l-76.12 45.672 8.24 13.712 80-48A7.998 7.998 0 00248 240V112h-16z"/></svg>